<svg width="198" height="198" viewBox="0 0 198 198" fill="none" xmlns="http://www.w3.org/2000/svg">
<g filter="url(#filter0_d)">
<circle cx="99" cy="95" r="82" fill="white" stroke="#356F53" stroke-width="4"/>
<path d="M64.6883 49C61.609 49 59.0885 51.5075 59.0885 54.5816V64.6213H68.1142V74.6391L65.536 76.6108L61.8392 75.6228C61.6012 75.5592 61.3489 75.5759 61.1213 75.6702C60.8938 75.7644 60.7037 75.9309 60.5807 76.144L58.6646 79.4486L54.8695 79.948C54.6253 79.9806 54.3987 80.0927 54.2249 80.267C54.0511 80.4413 53.9397 80.6681 53.9082 80.9121L53.4079 84.6985L50.089 86.6134C49.8764 86.7365 49.7103 86.9259 49.6163 87.1526C49.5223 87.3793 49.5057 87.6306 49.5691 87.8676L50.561 91.5581L48.2319 94.5943C48.0819 94.789 48.0004 95.0276 48 95.2732C47.9996 95.5189 48.0803 95.7579 48.2297 95.9531L50.561 98.9826L49.5713 102.678C49.5081 102.915 49.525 103.166 49.6194 103.393C49.7138 103.62 49.8804 103.809 50.0934 103.932L53.4079 105.845L53.9104 109.631C53.9255 109.747 53.9588 109.859 54.0089 109.965L48.4025 130.843C48.34 131.078 48.3566 131.328 48.4498 131.554C48.5429 131.779 48.7074 131.968 48.9182 132.091C49.129 132.215 49.3745 132.266 49.6171 132.237C49.8597 132.208 50.0862 132.1 50.2618 131.931L56.3379 126.077L58.667 134.182C58.7341 134.417 58.8765 134.623 59.0724 134.77C59.2683 134.916 59.5069 134.994 59.7516 134.992C59.9964 134.99 60.2337 134.908 60.4273 134.759C60.6209 134.61 60.76 134.401 60.8234 134.165L66.1348 114.391L68.1143 115.907V148.419C68.1143 151.493 70.6348 154 73.7141 154H128.965L129.277 153.686C129.292 153.672 129.307 153.658 129.321 153.644L146.101 136.893L146.57 136.424V54.5794C146.57 51.5053 144.052 49 140.973 49H90.5265H73.714H64.7692H64.6883ZM64.6883 51.2335H64.769C64.9703 51.2335 65.1639 51.2587 65.3546 51.2925L65.6036 51.3579C66.3295 51.5441 66.9601 51.9543 67.4083 52.5162C67.4093 52.5174 67.4095 52.5193 67.4105 52.5204C67.5086 52.6441 67.5928 52.7778 67.6727 52.9149C67.698 52.9572 67.7204 53.0003 67.7424 53.0438C67.8016 53.1569 67.8562 53.2721 67.9018 53.3928C67.9399 53.4954 67.9699 53.6017 67.9978 53.7089C68.0189 53.7878 68.0435 53.8651 68.0591 53.9466C68.0972 54.1513 68.1221 54.364 68.1225 54.5813V62.3875H61.3254V54.5813C61.3254 52.706 62.8093 51.2332 64.6879 51.2332L64.6883 51.2335ZM69.2109 51.2335H73.7139H90.5265H140.973C142.851 51.2335 144.333 52.7062 144.333 54.5816V134.976L133.02 134.816C129.922 134.774 127.413 137.33 127.413 140.404V151.764H73.7139C71.8354 151.764 70.3514 150.293 70.3514 148.418V115.941L72.3375 114.421L77.6358 134.164C77.6999 134.399 77.8392 134.607 78.0325 134.756C78.2258 134.904 78.4625 134.986 78.7065 134.988C78.9505 134.99 79.1885 134.912 79.3841 134.766C79.5797 134.621 79.7223 134.415 79.7901 134.181L82.1191 126.078L88.1974 131.93C88.3732 132.099 88.5994 132.205 88.8415 132.234C89.0836 132.262 89.3283 132.211 89.5385 132.088C89.7488 131.964 89.9129 131.776 90.006 131.551C90.0992 131.326 90.1162 131.077 90.0545 130.842L84.5224 110.224L84.6011 109.641C84.6019 109.637 84.6026 109.633 84.6033 109.629L85.1037 105.842L88.4159 103.929L89.1544 103.504L88.9641 102.793C88.9579 102.753 88.9494 102.713 88.9388 102.673L88.2942 100.272L87.9488 98.9784L88.1957 98.6554L90.2778 95.9509C90.2911 95.9324 90.3038 95.9136 90.3159 95.8943L90.7965 95.2683L90.2809 94.5987C90.2781 94.5958 90.2753 94.5931 90.2725 94.5903L87.9456 91.5585L88.2449 90.4353L88.9353 87.8702C88.9456 87.8344 88.9541 87.7981 88.9607 87.7614L89.1531 87.0416L88.5216 86.6773C88.488 86.6529 88.453 86.6304 88.4168 86.6098L85.1024 84.6992L84.5998 80.9105L84.4882 80.0599L79.841 79.4492L78.8054 77.6586L77.501 75.3945L72.9674 76.605L70.3499 74.6006V64.6197H70.3584V54.58C70.3584 54.2766 70.3288 53.9806 70.2798 53.6901C70.2767 53.6732 70.2766 53.6522 70.2713 53.6357C70.2332 53.4175 70.1631 53.212 70.1009 53.0032C70.0713 52.9057 70.0451 52.806 70.0092 52.7107C69.8159 52.1733 69.5469 51.6792 69.2073 51.2318L69.2109 51.2335ZM110.754 57.3865L107.566 62.8981L108.538 63.4587L114.787 67.0597V70.7218H96.1503V71.8342V99.6654H94.0768V100.786V107.068H117.024H135.67H140.848V86.2274H135.67V79.0973L139.102 81.0757L142.29 75.5639L131.525 69.3586V60.3833H124.11V61.4978V65.0859L110.754 57.3865ZM111.573 60.4401L139.233 76.3818L138.285 78.0242L110.623 62.0802L111.573 60.4401ZM126.347 62.6102H129.288V68.0674L126.347 66.3683V62.6102ZM117.024 68.3552L133.433 77.8105V86.2274V87.3398V104.835H117.024V101.899V68.3552ZM98.3875 72.9553H114.787V99.6654H111.846V83.1281H101.326V84.2404V99.6654H98.3875V72.9553ZM69.294 76.6087L72.0491 78.7179C72.0505 78.7186 72.0519 78.7193 72.0533 78.72L72.4904 79.056L76.4209 78.0004L78.4528 81.5207L79.0034 81.5928L82.4948 82.053L82.9558 85.5364C82.9572 85.5434 82.9586 85.5505 82.9601 85.5575L83.0277 86.0808L83.445 86.3231C83.4657 86.3365 83.4869 86.3491 83.5084 86.3611L86.5541 88.117L85.6431 91.5152C85.6382 91.5369 85.634 91.5587 85.6304 91.5806L85.5057 92.0474L85.7898 92.4158C85.8043 92.4389 85.8197 92.4615 85.8359 92.4834L87.9792 95.273L85.8381 98.0627L85.5062 98.4946L85.6241 98.9351C85.6298 98.9666 85.6369 98.9979 85.6453 99.0288L86.5563 102.425L85.1646 103.228L83.03 104.455L82.9623 104.979C82.9594 104.987 82.9566 104.996 82.9538 105.004L82.495 108.485L78.453 109.02L76.4211 112.54L72.4906 111.486L70.8737 112.725L69.2941 113.932L68.1143 112.919V113.094L66.4603 111.829C66.3247 111.724 66.1667 111.651 65.9984 111.617C65.8302 111.582 65.6563 111.587 65.4902 111.63L65.0641 111.744L62.0862 112.54L60.3274 109.5C60.3274 109.499 60.3274 109.498 60.3274 109.497C60.3085 109.466 60.288 109.435 60.2661 109.406C60.2661 109.405 60.2661 109.404 60.2661 109.404C60.2443 109.374 60.221 109.346 60.1963 109.318C60.1963 109.318 60.1963 109.317 60.1963 109.316C60.0176 109.114 59.7716 108.983 59.5037 108.948L56.0145 108.49L55.5513 105.004C55.5292 104.834 55.4682 104.672 55.3731 104.529C55.278 104.387 55.1514 104.268 55.0029 104.182L51.9529 102.424L52.8661 99.0322C52.9103 98.8662 52.9156 98.6924 52.8815 98.5241C52.8474 98.3557 52.7749 98.1974 52.6695 98.0616L50.5284 95.2699L52.6717 92.4846C52.7767 92.3482 52.8486 92.1893 52.882 92.0206C52.9154 91.8519 52.9092 91.6777 52.8641 91.5117L51.953 88.1157L55.0053 86.36C55.1537 86.2741 55.2804 86.1551 55.3755 86.0126C55.4706 85.87 55.5316 85.7075 55.5537 85.5376L56.0125 82.0523L59.5061 81.5941C59.6757 81.5712 59.8377 81.5097 59.9798 81.4144C60.1218 81.3191 60.24 81.1926 60.3254 81.0445L62.0886 77.9976L65.4926 78.9071C65.6581 78.9517 65.8316 78.9578 65.9998 78.9249C66.168 78.8919 66.3264 78.8208 66.4627 78.7171L68.1144 77.4521V77.6112L69.294 76.6087ZM119.972 81.0581V82.1727V87.4227H130.494V81.0581H119.972ZM69.2546 81.5206C61.6611 81.5206 55.4791 87.6898 55.4791 95.2704C55.4791 102.851 61.6611 109.022 69.2546 109.022C76.8482 109.022 83.028 102.851 83.028 95.2704C83.028 87.6898 76.8482 81.5206 69.2546 81.5206ZM122.203 83.2938H128.255V85.1892H122.203V83.2938ZM69.2546 83.7541C75.6391 83.7541 80.7907 88.8969 80.7907 95.2704C80.7907 101.644 75.6391 106.787 69.2546 106.787C62.8702 106.787 57.7186 101.644 57.7186 95.2704C57.7186 88.8969 62.8702 83.7541 69.2546 83.7541V83.7541ZM103.566 85.3616H109.609V99.6654H103.566V85.3616ZM69.2743 86.3518C69.0646 86.3499 68.8586 86.4067 68.6798 86.5158C68.5009 86.6249 68.3564 86.782 68.2627 86.9691L65.962 91.5603L60.8692 92.3106C60.6636 92.3409 60.4705 92.4279 60.3116 92.5616C60.1528 92.6953 60.0344 92.8704 59.9697 93.0674C59.9051 93.2644 59.8967 93.4756 59.9456 93.6771C59.9945 93.8786 60.0987 94.0624 60.2465 94.2081L63.9127 97.8114L63.054 102.874C63.019 103.079 63.042 103.289 63.1204 103.481C63.1987 103.674 63.3294 103.841 63.4976 103.963C63.6659 104.085 63.865 104.158 64.0727 104.174C64.2803 104.19 64.4882 104.147 64.673 104.052L69.2415 101.685L73.8035 104.065C73.9879 104.161 74.1956 104.204 74.4032 104.189C74.6109 104.175 74.8102 104.102 74.9789 103.981C75.1476 103.859 75.2789 103.693 75.358 103.5C75.4371 103.308 75.461 103.098 75.4269 102.893L74.5791 97.8289L78.2606 94.2365C78.4096 94.0913 78.515 93.9077 78.5649 93.706C78.6149 93.5044 78.6075 93.2928 78.5434 93.0951C78.4794 92.8975 78.3613 92.7216 78.2025 92.5872C78.0437 92.4529 77.8504 92.3654 77.6445 92.3346L72.5538 91.5712L70.2684 86.9713C70.1764 86.7864 70.0347 86.6306 69.8592 86.5212C69.6837 86.4119 69.4812 86.3533 69.2743 86.3518V86.3518ZM135.67 88.4609H138.611V104.835H135.67V88.4609ZM119.972 89.3268V90.4479V95.7001H130.494V89.3268H119.972ZM69.259 89.9703L70.8081 93.0849C70.8884 93.2457 71.0063 93.3847 71.152 93.4903C71.2977 93.5959 71.4668 93.6648 71.6449 93.6912L75.0882 94.2081L72.5975 96.6401C72.4694 96.7658 72.3736 96.9205 72.3181 97.091C72.2626 97.2614 72.2491 97.4427 72.2787 97.6194L72.8511 101.046L69.7639 99.4364C69.6041 99.3532 69.4264 99.3096 69.2461 99.3096C69.0658 99.3096 68.8882 99.3532 68.7283 99.4364L65.6367 101.037L66.2179 97.6129C66.2485 97.4356 66.2357 97.2536 66.1806 97.0823C66.1254 96.911 66.0296 96.7555 65.9012 96.6292L63.4171 94.1929L66.8648 93.6847C67.0429 93.6582 67.212 93.5893 67.3577 93.4837C67.5033 93.3782 67.6213 93.2391 67.7016 93.0784L69.259 89.9703ZM122.203 91.5603H128.255V93.4666H122.203V91.5603ZM96.3141 101.899H114.787V104.835H96.3141V101.899ZM56.1084 110.756L58.669 111.092L60.5807 114.401L60.583 114.405C60.6013 114.436 60.621 114.466 60.6422 114.495C60.6595 114.518 60.6776 114.541 60.6967 114.562C60.7022 114.57 60.7079 114.576 60.7136 114.583C60.7143 114.584 60.7151 114.585 60.7158 114.586C60.74 114.613 60.7656 114.639 60.7924 114.664C60.7931 114.665 60.7939 114.666 60.7946 114.666C60.8211 114.691 60.8487 114.714 60.8775 114.736C60.8782 114.737 60.8789 114.737 60.8796 114.738C61.0151 114.84 61.1721 114.91 61.3386 114.943C61.5052 114.975 61.677 114.969 61.841 114.926L63.8138 114.398L59.7085 129.698L57.9758 123.68C57.9224 123.496 57.822 123.328 57.6844 123.193C57.5468 123.058 57.3767 122.961 57.1906 122.912C57.0044 122.862 56.8085 122.861 56.6218 122.909C56.4352 122.957 56.2641 123.052 56.1253 123.185L51.6092 127.53L56.1084 110.756ZM82.3507 110.765L86.8515 127.531L82.3332 123.186C82.1943 123.054 82.0234 122.959 81.837 122.911C81.6507 122.863 81.4551 122.864 81.2693 122.914C81.0835 122.964 80.9137 123.061 80.7763 123.195C80.6388 123.329 80.5385 123.497 80.4848 123.681L78.7588 129.699L74.6469 114.381L74.8215 114.429L76.6699 114.927C76.7124 114.937 76.7554 114.946 76.7989 114.952L77.5024 115.139L77.8804 114.485C77.8989 114.459 77.9164 114.433 77.9328 114.406L79.117 112.35L79.8424 111.093L82.3507 110.765ZM139.856 117.123C139.815 117.122 139.775 117.123 139.734 117.127H97.2232C97.1846 117.125 97.1459 117.125 97.1074 117.127C96.827 117.162 96.5704 117.302 96.3891 117.518C96.2077 117.735 96.1151 118.011 96.1298 118.293C96.1444 118.575 96.2653 118.841 96.4681 119.037C96.671 119.233 96.9407 119.346 97.2232 119.352H139.734C139.883 119.365 140.034 119.348 140.177 119.302C140.32 119.256 140.452 119.181 140.565 119.083C140.679 118.985 140.771 118.865 140.837 118.731C140.903 118.596 140.942 118.45 140.95 118.3C140.958 118.151 140.936 118.001 140.885 117.86C140.834 117.719 140.755 117.59 140.653 117.48C140.551 117.37 140.428 117.282 140.291 117.22C140.154 117.159 140.006 117.126 139.856 117.123V117.123ZM97.1116 122.706C97.1102 122.707 97.1088 122.708 97.1074 122.709C96.8152 122.73 96.5432 122.865 96.3494 123.084C96.1557 123.304 96.0557 123.59 96.0708 123.882C96.086 124.174 96.2151 124.448 96.4305 124.647C96.6459 124.845 96.9304 124.951 97.2232 124.942H139.734C139.883 124.945 140.031 124.919 140.17 124.864C140.308 124.81 140.435 124.728 140.541 124.624C140.648 124.52 140.732 124.396 140.79 124.258C140.848 124.121 140.878 123.974 140.878 123.825C140.878 123.676 140.848 123.529 140.79 123.392C140.732 123.255 140.648 123.131 140.541 123.027C140.435 122.923 140.308 122.841 140.17 122.786C140.031 122.732 139.883 122.705 139.734 122.709H97.2232C97.1861 122.706 97.1488 122.705 97.1116 122.706V122.706ZM97.2232 128.288C96.9268 128.289 96.6429 128.407 96.4337 128.617C96.2245 128.826 96.107 129.11 96.107 129.406C96.107 129.702 96.2245 129.985 96.4337 130.195C96.6429 130.405 96.9268 130.523 97.2232 130.524H139.734C139.881 130.524 140.027 130.495 140.164 130.439C140.3 130.384 140.424 130.301 140.528 130.197C140.632 130.094 140.715 129.97 140.772 129.834C140.828 129.698 140.857 129.553 140.857 129.406C140.857 129.259 140.828 129.113 140.772 128.977C140.715 128.841 140.632 128.718 140.528 128.614C140.424 128.51 140.3 128.428 140.164 128.372C140.027 128.316 139.881 128.288 139.734 128.288H97.2232ZM132.987 137.052L142.649 137.183L129.651 150.149V140.406C129.651 138.531 131.127 137.026 132.987 137.052ZM78.0926 139.457C78.0918 139.458 78.0911 139.459 78.0903 139.46C77.7982 139.481 77.5262 139.616 77.3324 139.835C77.1387 140.055 77.0387 140.341 77.0538 140.633C77.069 140.925 77.1981 141.199 77.4134 141.398C77.6288 141.596 77.9134 141.702 78.2062 141.693H120.717C120.866 141.696 121.014 141.67 121.153 141.615C121.291 141.561 121.418 141.479 121.524 141.375C121.631 141.271 121.715 141.147 121.773 141.009C121.831 140.872 121.861 140.725 121.861 140.576C121.861 140.428 121.831 140.28 121.773 140.143C121.715 140.006 121.631 139.882 121.524 139.778C121.418 139.674 121.291 139.592 121.153 139.537C121.014 139.483 120.866 139.456 120.717 139.46H78.2062C78.1683 139.457 78.1304 139.456 78.0924 139.457H78.0926ZM78.2063 145.039C77.9099 145.04 77.626 145.158 77.4168 145.368C77.2076 145.577 77.0901 145.861 77.0901 146.157C77.0901 146.453 77.2076 146.737 77.4168 146.946C77.626 147.156 77.9099 147.274 78.2063 147.275H120.717C120.864 147.275 121.01 147.246 121.147 147.191C121.283 147.135 121.407 147.052 121.511 146.948C121.615 146.845 121.698 146.721 121.755 146.585C121.811 146.45 121.84 146.304 121.84 146.157C121.84 146.01 121.811 145.864 121.755 145.728C121.698 145.592 121.615 145.469 121.511 145.365C121.407 145.261 121.283 145.179 121.147 145.123C121.01 145.067 120.864 145.039 120.717 145.039H78.2063Z" fill="#356F53"/>
</g>
<defs>
<filter id="filter0_d" x="0" y="0" width="198" height="198" filterUnits="userSpaceOnUse" color-interpolation-filters="sRGB">
<feFlood flood-opacity="0" result="BackgroundImageFix"/>
<feColorMatrix in="SourceAlpha" type="matrix" values="0 0 0 0 0 0 0 0 0 0 0 0 0 0 0 0 0 0 127 0" result="hardAlpha"/>
<feOffset dy="4"/>
<feGaussianBlur stdDeviation="7.5"/>
<feComposite in2="hardAlpha" operator="out"/>
<feColorMatrix type="matrix" values="0 0 0 0 0 0 0 0 0 0 0 0 0 0 0 0 0 0 0.25 0"/>
<feBlend mode="normal" in2="BackgroundImageFix" result="effect1_dropShadow"/>
<feBlend mode="normal" in="SourceGraphic" in2="effect1_dropShadow" result="shape"/>
</filter>
</defs>
</svg>
