<svg width="48" height="48" viewBox="0 0 48 48" fill="none" xmlns="http://www.w3.org/2000/svg">
<circle cx="24" cy="24" r="24" fill="#356F53"/>
<path d="M36.9245 17.1025L29.6211 23.9999L36.9242 30.8977C36.9444 30.7612 36.9585 30.6221 36.9585 30.4799V17.5199C36.9585 17.3776 36.9446 17.2391 36.9245 17.1025Z" fill="white"/>
<path d="M25.5984 25.8171L36.3086 15.702C35.7795 15.0543 34.9757 14.6387 34.0791 14.6387H13.9191C13.0226 14.6387 12.2188 15.0543 11.6895 15.7017L22.3999 25.8174C23.2668 26.6362 24.7318 26.6362 25.5984 25.8171Z" fill="white"/>
<path d="M11.073 17.1016C11.0532 17.2381 11.0391 17.3772 11.0391 17.5195V30.4794C11.0391 30.6217 11.0532 30.7608 11.073 30.8973L18.3761 23.9989L11.073 17.1016Z" fill="white"/>
<path d="M26.5868 26.866C25.8732 27.5405 24.936 27.8774 23.9989 27.8774C23.0614 27.8774 22.1243 27.5405 21.4109 26.866L19.4248 24.9902L11.6895 32.2974C12.2185 32.9448 13.0223 33.3604 13.9189 33.3604H34.0789C34.9754 33.3604 35.7792 32.9448 36.3083 32.2974L28.5729 24.9905L26.5868 26.866Z" fill="white"/>
</svg>
