<svg width="198" height="198" viewBox="0 0 198 198" fill="none" xmlns="http://www.w3.org/2000/svg">
<g filter="url(#filter0_d)">
<circle cx="99" cy="95" r="82" fill="white" stroke="#356F53" stroke-width="4"/>
<path d="M152.514 96.471C151.921 95.6797 151.176 95.0145 150.324 94.5143C149.471 94.0142 148.527 93.6891 147.547 93.5579C146.568 93.4268 145.572 93.4923 144.618 93.7506C143.664 94.0089 142.77 94.4548 141.99 95.0624L127.554 106.302C127.086 105.225 126.316 104.308 125.337 103.661C124.357 103.015 123.211 102.668 122.038 102.661H102.784C96.798 100.142 90.2495 99.2641 83.8123 100.119C78.6579 100.761 69.952 105.579 67.3042 107.099L67.201 106.921C66.7815 106.193 66.2227 105.554 65.5564 105.042C64.8901 104.53 64.1294 104.155 63.318 103.938C62.5065 103.72 61.6602 103.665 60.8274 103.776C59.9947 103.886 59.1919 104.16 58.4649 104.581L44.4508 112.668C44.2437 112.788 44.0926 112.985 44.0307 113.216C43.9688 113.447 44.0012 113.693 44.1208 113.901L63.2832 147.139C63.3424 147.242 63.4213 147.332 63.5152 147.404C63.6092 147.476 63.7165 147.529 63.8309 147.56C63.9454 147.591 64.0647 147.598 64.1822 147.583C64.2996 147.567 64.4129 147.529 64.5154 147.469L78.5292 139.365C79.7197 138.684 80.6587 137.634 81.203 136.374C81.7473 135.115 81.8689 133.712 81.5493 132.378H117.728C121.952 132.389 126.016 130.759 129.064 127.832L151.682 106.332C153.005 105.076 153.82 103.378 153.974 101.56C154.127 99.7417 153.608 97.9307 152.514 96.471ZM77.6255 137.802L64.3939 145.454L46.1335 113.779L59.3679 106.143C59.8899 105.84 60.4664 105.643 61.0645 105.564C61.6625 105.485 62.2703 105.525 62.8531 105.681C63.4358 105.837 63.982 106.107 64.4604 106.475C64.9387 106.843 65.3399 107.301 65.6408 107.825L79.2778 131.476L79.4822 131.868C79.9801 132.909 80.0654 134.1 79.7209 135.201C79.3763 136.302 78.6276 137.231 77.6255 137.802ZM150.441 105.023L127.821 126.526C125.107 129.132 121.49 130.582 117.729 130.572H80.8369L68.2088 108.662C70.7971 107.182 79.2837 102.502 84.0345 101.909C90.1937 101.105 96.4559 101.955 102.179 104.372C102.303 104.433 102.441 104.466 102.58 104.466H122.039C123.03 104.469 123.988 104.821 124.745 105.462C125.501 106.102 126.008 106.99 126.175 107.968L126.181 107.982C126.182 107.989 126.18 107.995 126.181 108.003C126.219 108.215 126.237 108.431 126.233 108.647C126.225 109.758 125.781 110.821 124.996 111.607C124.211 112.392 123.149 112.837 122.039 112.844H105.582C105.462 112.842 105.344 112.865 105.233 112.909C105.122 112.954 105.021 113.02 104.936 113.104C104.851 113.188 104.783 113.288 104.737 113.398C104.691 113.509 104.667 113.627 104.667 113.746C104.667 113.866 104.691 113.984 104.737 114.095C104.783 114.205 104.851 114.305 104.936 114.389C105.021 114.473 105.122 114.539 105.233 114.584C105.344 114.628 105.462 114.65 105.582 114.649H122.039C123.627 114.641 125.149 114.006 126.272 112.883C127.395 111.759 128.029 110.236 128.037 108.647C128.037 108.508 128.01 108.377 128.001 108.241L143.094 96.4893C144.299 95.5886 145.809 95.1959 147.3 95.3951C148.792 95.5943 150.146 96.3697 151.073 97.5554C151.901 98.6612 152.294 100.033 152.177 101.41C152.061 102.786 151.443 104.072 150.441 105.023Z" fill="#356F53" stroke="#356F53" stroke-width="1.5"/>
<path d="M92.6894 54.7212V48.6064C92.6894 47.5019 91.7939 46.6064 90.6894 46.6064H82.0664C80.9618 46.6064 80.0664 47.5019 80.0664 48.6064V65.5409" stroke="#356F53" stroke-width="3"/>
<path d="M80.0664 75.0077V101.671M135.968 100.417V73.6553M98.55 101.671V83.6002C98.55 82.4956 99.4454 81.6002 100.55 81.6002H113.681C114.786 81.6002 115.681 82.4956 115.681 83.6002V102.508" stroke="#356F53" stroke-width="3"/>
<path d="M75.4278 78.6238C70.886 82.4959 65.9312 77.0749 69.6473 73.9772C72.8459 71.3108 98.6829 50.2831 105.816 44.4793C106.892 43.6031 108.393 43.581 109.494 44.4258C116.904 50.1073 144.064 70.9715 147.272 73.9772C150.991 77.4621 146.036 81.7215 142.317 78.6238C139.147 75.9836 116.186 58.9979 109.473 54.0382C108.38 53.2313 106.899 53.2669 105.838 54.1143C99.6322 59.0702 79.2675 75.3503 75.4278 78.6238Z" stroke="#356F53" stroke-width="3"/>
</g>
<defs>
<filter id="filter0_d" x="0" y="0" width="198" height="198" filterUnits="userSpaceOnUse" color-interpolation-filters="sRGB">
<feFlood flood-opacity="0" result="BackgroundImageFix"/>
<feColorMatrix in="SourceAlpha" type="matrix" values="0 0 0 0 0 0 0 0 0 0 0 0 0 0 0 0 0 0 127 0" result="hardAlpha"/>
<feOffset dy="4"/>
<feGaussianBlur stdDeviation="7.5"/>
<feComposite in2="hardAlpha" operator="out"/>
<feColorMatrix type="matrix" values="0 0 0 0 0 0 0 0 0 0 0 0 0 0 0 0 0 0 0.25 0"/>
<feBlend mode="normal" in2="BackgroundImageFix" result="effect1_dropShadow"/>
<feBlend mode="normal" in="SourceGraphic" in2="effect1_dropShadow" result="shape"/>
</filter>
</defs>
</svg>
