<svg width="198" height="198" viewBox="0 0 198 198" fill="none" xmlns="http://www.w3.org/2000/svg">
<g filter="url(#filter0_d)">
<circle cx="99" cy="95" r="82" fill="white" stroke="#356F53" stroke-width="4"/>
<path d="M84.3926 50.9498C81.0181 55.2006 79.0844 60.2759 78.8349 65.5367H76.9551C76.5513 65.5367 76.164 65.6844 75.8784 65.9474C75.5929 66.2104 75.4325 66.5672 75.4325 66.9391V72.8964C75.4325 73.2683 75.5929 73.625 75.8784 73.888C76.164 74.151 76.5513 74.2988 76.9551 74.2988H80.0418L80.2225 76.7112C79.3112 77.003 78.4944 77.5015 77.8472 78.1606C77.2001 78.8197 76.7436 79.6182 76.5196 80.4826C76.0978 82.0706 76.3259 83.746 77.1602 85.189C77.9945 86.632 79.3767 87.7413 81.0427 88.3053C81.2403 92.0554 82.476 95.6966 84.6324 98.8828C86.7889 102.069 89.7943 104.694 93.363 106.509V111.571L91.2746 112.394C85.1877 109.705 79.4019 106.473 74.0004 102.744C73.7368 102.562 73.4162 102.464 73.0868 102.464C72.7573 102.464 72.4367 102.562 72.1732 102.744C65.6446 107.253 58.5583 111.032 51.0628 114.002L50.921 114.058C50.6475 114.167 50.4146 114.346 50.2509 114.575C50.0872 114.804 50 115.072 50 115.347V129.735C50 137.215 53.8793 143.783 61.2183 148.731C64.5857 150.995 68.3209 152.755 72.2853 153.944C72.5598 154.018 72.8514 154.019 73.1266 153.947C77.2066 152.767 81.0637 151.012 84.5609 148.745C86.0634 147.772 87.4753 146.685 88.782 145.496H135.477C135.881 145.496 136.268 145.348 136.554 145.085C136.84 144.822 137 144.465 137 144.093V126.88C137 126.841 136.998 126.802 136.995 126.763C136.796 124.648 136.013 122.614 134.72 120.856C133.428 119.098 131.669 117.673 129.61 116.717C129.583 116.705 129.555 116.694 129.527 116.682L116.525 111.571V106.45C120.064 104.627 123.041 102.005 125.176 98.83C127.311 95.6551 128.534 92.0319 128.73 88.3015C130.392 87.7352 131.771 86.6255 132.602 85.1837C133.434 83.7419 133.661 82.0687 133.24 80.4828C133.016 79.6211 132.562 78.8248 131.917 78.1668C131.273 77.5089 130.46 77.0103 129.552 76.7168L129.733 74.2988H132.932C133.336 74.2988 133.724 74.151 134.009 73.888C134.295 73.625 134.455 73.2683 134.455 72.8964V66.9391C134.455 66.5672 134.295 66.2104 134.009 65.9474C133.724 65.6844 133.336 65.5367 132.932 65.5367H131.054C130.814 60.2671 128.878 55.1823 125.493 50.9281C122.276 46.8848 117.775 43.862 112.612 42.2779L112.807 40.5466C112.829 40.3515 112.806 40.1542 112.74 39.9677C112.674 39.7811 112.566 39.6094 112.423 39.4637C112.281 39.3179 112.107 39.2013 111.912 39.1214C111.717 39.0416 111.507 39.0002 111.294 39H98.5944C98.3811 39 98.1703 39.0412 97.9755 39.121C97.7807 39.2009 97.6063 39.3175 97.4635 39.4633C97.3207 39.6091 97.2128 39.781 97.1467 39.9677C97.0806 40.1544 97.0578 40.3518 97.0798 40.5471L97.275 42.2786C92.1077 43.8674 87.6054 46.8979 84.3926 50.9498V50.9498ZM120.97 125.377V116.368L123.013 117.171V125.377H120.97ZM125.558 128.182V142.69H91.4413C94.5259 138.97 96.1895 134.415 96.1736 129.734V128.182H125.558ZM82.8725 146.407C79.7517 148.421 76.3324 150.01 72.7198 151.126C69.2558 150.018 65.9868 148.448 63.0168 146.467C56.4 142.006 53.0451 136.376 53.0451 129.734V116.265C60.127 113.397 66.8474 109.824 73.0865 105.611C79.3258 109.824 86.0462 113.397 93.128 116.265V129.734C93.1282 136.343 89.6776 141.953 82.8727 146.407H82.8725ZM133.954 126.94V142.69H128.603V126.78C128.603 126.408 128.443 126.051 128.157 125.788C127.872 125.525 127.485 125.377 127.081 125.377H126.06V118.369L128.289 119.245C129.862 119.983 131.206 121.076 132.196 122.421C133.187 123.767 133.792 125.321 133.955 126.94H133.954ZM117.924 115.171V125.377H96.1736V115.345C96.1727 115.023 96.0507 114.71 95.8282 114.46C98.8999 115.6 102.191 116.151 105.502 116.081C108.812 116.012 112.073 115.322 115.085 114.055L117.924 115.171ZM113.48 111.643C110.787 112.724 107.881 113.283 104.944 113.283C102.007 113.283 99.1009 112.724 96.4083 111.643V107.812C101.91 109.737 107.989 109.722 113.48 107.772V111.643ZM130.282 81.1499C130.418 81.6595 130.438 82.1892 130.343 82.7064C130.247 83.2236 130.038 83.7174 129.728 84.1572C129.417 84.5971 129.012 84.9737 128.538 85.2639C128.063 85.5542 127.529 85.7518 126.969 85.8447C126.616 85.9022 126.297 86.0721 126.067 86.3246C125.837 86.5771 125.711 86.8961 125.711 87.2256V87.2586C125.711 89.7774 125.173 92.2716 124.126 94.5987C123.08 96.9257 121.546 99.0402 119.612 100.821C117.678 102.602 115.382 104.015 112.856 104.979C110.329 105.943 107.621 106.439 104.886 106.439C102.152 106.439 99.4435 105.943 96.9169 104.979C94.3903 104.015 92.0945 102.602 90.1607 100.821C88.2269 99.0402 86.693 96.9257 85.6464 94.5987C84.5999 92.2716 84.0612 89.7774 84.0612 87.2586V87.2275C84.0612 86.8975 83.9348 86.5781 83.7044 86.3254C83.4739 86.0728 83.1541 85.903 82.8012 85.8461C82.2394 85.7544 81.704 85.5576 81.2281 85.2678C80.7522 84.978 80.3459 84.6013 80.0343 84.1612C79.7227 83.721 79.5125 83.2266 79.4166 82.7086C79.3207 82.1907 79.3411 81.6601 79.4767 81.1496C79.5717 80.7625 79.7672 80.4023 80.0464 80.0998C80.3256 79.7974 80.6802 79.5618 81.0798 79.4132C81.3658 79.7273 81.7168 79.9857 82.1124 80.1736L84.7903 81.4399C85.0804 81.5769 85.4027 81.6459 85.7287 81.6406C86.0546 81.6354 86.3742 81.5562 86.6589 81.41C86.9437 81.2639 87.1849 81.0552 87.3612 80.8027C87.5374 80.5501 87.6433 80.2613 87.6694 79.962L88.161 74.2988H120.923C121.17 75.2833 121.465 76.2603 121.811 77.2151L123.16 80.9423C123.264 81.2327 123.446 81.4943 123.689 81.7026C123.933 81.911 124.229 82.0595 124.551 82.1344C124.712 82.172 124.877 82.1911 125.043 82.1912C125.544 82.1911 126.026 82.0156 126.391 81.7003L128.273 80.0824C128.483 79.9006 128.669 79.6976 128.83 79.4772C129.193 79.6366 129.513 79.87 129.765 80.1597C130.016 80.4494 130.193 80.788 130.282 81.1499V81.1499ZM83.0951 74.2988H85.1078L84.7626 78.2723L83.5057 77.6779C83.456 77.6543 83.4138 77.6193 83.383 77.5763C83.3522 77.5334 83.3339 77.4839 83.3298 77.4325L83.0951 74.2988ZM126.437 77.562C126.424 77.741 126.337 77.9087 126.195 78.0309L125.524 78.607L124.7 76.3283C124.458 75.6615 124.244 74.9829 124.055 74.2988H126.681L126.437 77.562ZM131.411 71.4939H122.821C122.604 71.3896 122.363 71.3351 122.119 71.3351C121.874 71.3351 121.633 71.3896 121.416 71.4939H86.7373C86.7294 71.4939 86.7216 71.4939 86.7137 71.4939H78.4778V68.3415H131.41L131.411 71.4939ZM99.3115 44.6485C99.6621 44.5627 99.9679 44.3644 100.174 44.0894C100.38 43.8144 100.472 43.4807 100.435 43.1484L100.283 41.8048H109.604L109.452 43.1484C109.414 43.4807 109.507 43.8144 109.713 44.0894C109.919 44.3644 110.225 44.5627 110.575 44.6485C111.739 44.9352 112.874 45.3115 113.97 45.7735V47.9655C113.969 50.5104 113.132 52.9955 111.568 55.0937C110.005 57.1919 107.788 58.8049 105.21 59.7204C102.498 58.88 100.142 57.2758 98.4743 55.1347C96.8067 52.9935 95.9121 50.4236 95.917 47.7885V45.776C97.012 45.3128 98.1475 44.9356 99.3115 44.6485ZM92.8716 47.3339V47.7885C92.8654 51.0416 93.9804 54.2125 96.0559 56.8447C98.1314 59.4768 101.06 61.4343 104.421 62.4352L104.767 62.5388C105.082 62.6329 105.421 62.6303 105.733 62.5313C109.026 61.4873 111.883 59.5229 113.906 56.9121C115.928 54.3012 117.016 51.174 117.016 47.9666V47.3288C119.346 48.7466 121.387 50.5302 123.047 52.5981C126.045 56.3685 127.769 60.8687 128.006 65.5367H81.885C82.1298 60.8762 83.8533 56.3842 86.8421 52.6168C88.5007 50.5444 90.5416 48.7563 92.8716 47.3339V47.3339Z" fill="#356F53"/>
<path d="M105.849 56.6845H112.306C112.741 56.6845 113.158 56.5153 113.466 56.214C113.773 55.9127 113.946 55.5041 113.946 55.0781C113.946 54.652 113.773 54.2434 113.466 53.9422C113.158 53.6409 112.741 53.4717 112.306 53.4717H105.849C105.414 53.4717 104.997 53.6409 104.689 53.9422C104.382 54.2434 104.209 54.652 104.209 55.0781C104.209 55.5041 104.382 55.9127 104.689 56.214C104.997 56.5153 105.414 56.6845 105.849 56.6845V56.6845Z" fill="#356F53"/>
<path d="M105.849 50.8515H112.306C112.741 50.8515 113.158 50.6822 113.466 50.381C113.773 50.0797 113.946 49.6711 113.946 49.2451C113.946 48.819 113.773 48.4104 113.466 48.1092C113.158 47.8079 112.741 47.6387 112.306 47.6387H105.849C105.414 47.6387 104.997 47.8079 104.689 48.1092C104.382 48.4104 104.209 48.819 104.209 49.2451C104.209 49.6711 104.382 50.0797 104.689 50.381C104.997 50.6822 105.414 50.8515 105.849 50.8515V50.8515Z" fill="#356F53"/>
<path d="M82.227 122.998L70.2738 133.726L64.4328 127.52C64.2868 127.365 64.1111 127.24 63.9157 127.151C63.7203 127.062 63.5089 127.012 63.2938 127.004C63.0787 126.995 62.8639 127.028 62.6618 127.101C62.4598 127.174 62.2743 127.285 62.116 127.428C61.9577 127.571 61.8297 127.743 61.7393 127.935C61.649 128.126 61.598 128.333 61.5892 128.544C61.5805 128.755 61.6143 128.965 61.6885 129.163C61.7628 129.361 61.8762 129.543 62.0221 129.698L68.9709 137.081C69.2651 137.393 69.6736 137.579 70.1071 137.597C70.5405 137.615 70.9635 137.464 71.2835 137.176L84.442 125.367C84.6008 125.225 84.7293 125.053 84.8204 124.862C84.9114 124.671 84.9631 124.464 84.9726 124.253C84.982 124.042 84.949 123.832 84.8754 123.634C84.8018 123.435 84.6891 123.253 84.5436 123.098C84.3982 122.942 84.2229 122.816 84.0278 122.727C83.8326 122.638 83.6215 122.587 83.4064 122.578C83.1912 122.568 82.9764 122.601 82.774 122.673C82.5716 122.745 82.3858 122.856 82.227 122.998V122.998Z" fill="#356F53"/>
</g>
<defs>
<filter id="filter0_d" x="0" y="0" width="198" height="198" filterUnits="userSpaceOnUse" color-interpolation-filters="sRGB">
<feFlood flood-opacity="0" result="BackgroundImageFix"/>
<feColorMatrix in="SourceAlpha" type="matrix" values="0 0 0 0 0 0 0 0 0 0 0 0 0 0 0 0 0 0 127 0" result="hardAlpha"/>
<feOffset dy="4"/>
<feGaussianBlur stdDeviation="7.5"/>
<feComposite in2="hardAlpha" operator="out"/>
<feColorMatrix type="matrix" values="0 0 0 0 0 0 0 0 0 0 0 0 0 0 0 0 0 0 0.25 0"/>
<feBlend mode="normal" in2="BackgroundImageFix" result="effect1_dropShadow"/>
<feBlend mode="normal" in="SourceGraphic" in2="effect1_dropShadow" result="shape"/>
</filter>
</defs>
</svg>
