<svg width="48" height="48" viewBox="0 0 48 48" fill="none" xmlns="http://www.w3.org/2000/svg">
<circle cx="24" cy="24" r="24" fill="#356F53"/>
<path fill-rule="evenodd" clip-rule="evenodd" d="M34.2043 13.8043C31.4949 11.0949 27.8949 9.59961 24.0605 9.59961C16.1574 9.59961 9.72148 16.0309 9.72148 23.934C9.7168 26.4605 10.3777 28.9262 11.634 31.1012L9.59961 38.5309L17.2027 36.534C19.2934 37.6777 21.6559 38.2777 24.0559 38.2824H24.0605C31.9637 38.2824 38.3949 31.8512 38.3996 23.9434C38.3996 20.1137 36.909 16.5137 34.2043 13.8043ZM24.0605 35.859H24.0559C21.9184 35.859 19.8184 35.2824 17.9902 34.1996L17.5543 33.9418L13.0402 35.123L14.2449 30.7262L13.9637 30.2762C12.7684 28.3777 12.1402 26.184 12.1402 23.934C12.1402 17.3668 17.4887 12.023 24.0652 12.023C27.248 12.023 30.2387 13.2652 32.4887 15.5152C34.7387 17.7699 35.9762 20.7605 35.9762 23.9434C35.9762 30.5152 30.6277 35.859 24.0605 35.859ZM30.5949 26.934C30.2387 26.7559 28.4762 25.8887 28.148 25.7715C27.8199 25.6496 27.5809 25.5934 27.3418 25.9496C27.1027 26.3105 26.4184 27.1168 26.2074 27.3559C26.0012 27.5902 25.7902 27.623 25.434 27.4449C25.073 27.2668 23.9199 26.8871 22.5512 25.6637C21.4871 24.7168 20.7652 23.5402 20.559 23.184C20.348 22.823 20.5355 22.6309 20.7137 22.4527C20.8777 22.2934 21.0746 22.0355 21.2527 21.8246C21.4309 21.6184 21.4918 21.4684 21.6137 21.2293C21.7309 20.9902 21.6699 20.7793 21.5809 20.6012C21.4918 20.423 20.7746 18.6559 20.4746 17.9387C20.184 17.2402 19.8887 17.3387 19.6684 17.3246C19.4621 17.3152 19.223 17.3152 18.984 17.3152C18.7449 17.3152 18.3559 17.4043 18.0277 17.7652C17.6996 18.1215 16.7762 18.9887 16.7762 20.7512C16.7762 22.5137 18.0605 24.2199 18.2387 24.459C18.4168 24.6934 20.7652 28.3121 24.3605 29.8637C25.2137 30.234 25.8793 30.4543 26.3996 30.6184C27.2574 30.8902 28.0402 30.8527 28.659 30.7637C29.348 30.6605 30.7777 29.8965 31.0777 29.0574C31.373 28.223 31.373 27.5059 31.284 27.3559C31.1949 27.2059 30.9559 27.1168 30.5949 26.934Z" fill="white"/>
</svg>
