<?xml version="1.0" standalone="no"?>
<!DOCTYPE svg PUBLIC "-//W3C//DTD SVG 20010904//EN"
 "http://www.w3.org/TR/2001/REC-SVG-20010904/DTD/svg10.dtd">
<svg version="1.0" xmlns="http://www.w3.org/2000/svg"
 width="89.000000pt" height="52.000000pt" viewBox="0 0 89.000000 52.000000"
 preserveAspectRatio="xMidYMid meet">

<g transform="translate(0.000000,52.000000) scale(0.100000,-0.100000)"
fill="#000000" stroke="none">
<path d="M405 514 c-90 -22 -150 -67 -188 -138 -29 -57 -29 -165 0 -222 78
-149 269 -185 395 -75 64 56 105 181 59 181 -13 0 -21 -10 -25 -33 -18 -94
-105 -167 -199 -167 -159 0 -256 158 -184 300 33 67 91 103 175 108 66 4 101
18 85 33 -11 10 -93 19 -118 13z"/>
<path d="M525 340 l-109 -110 -38 37 c-34 33 -40 35 -53 22 -13 -13 -9 -21 40
-69 l55 -55 126 126 c119 120 124 126 107 142 -18 16 -24 11 -128 -93z"/>
</g>
</svg>
