<svg width="79" height="67" viewBox="0 0 79 67" fill="none" xmlns="http://www.w3.org/2000/svg">
<path d="M0.699951 32.2999L19.2 32.1999L32.7999 13.4999L46 31.9999L55.7 18.9999L42.5999 0.399902H22.9L0.699951 32.2999Z" fill="#666666"/>
<path d="M78.7 17.9H59.5L46.1 36.2999L32.8 17.7L23.5 31.0999L36.5 49.5999H55.9L78.7 17.9Z" fill="black"/>
<path d="M8.9 57.5H2V59H8C8.6 59 8.8 59.1 8.8 59.7V60.7C8.8 61.3 8.5 61.4 8 61.4H2V66.4H3.8V62.9H8.8C10 62.9 10.6 62.4 10.6 61.2V59.2C10.7 58 10.1 57.5 8.9 57.5Z" fill="black"/>
<path d="M19.9001 62.5H23.6001V61H19.9001V59H26.3001V57.5H18.1001V66.4H26.3001V64.7H19.9001V62.5Z" fill="black"/>
<path d="M32.5 59.1H36.2V66.4H38V59.1H41.7V57.5H32.5V59.1Z" fill="black"/>
<path d="M55.4 63C56.6 63 57.2 62.5 57.2 61.3V59.2C57.2 58 56.6 57.5 55.4 57.5H48.5V59H54.5C55.1 59 55.3 59.1 55.3 59.7V60.8C55.3 61.4 55 61.5 54.5 61.5H48.5V66.4H50.3V63H52.1L55.3 66.4H58L54.4 63H55.4Z" fill="black"/>
<path d="M69.8 57.5H68L63.5 66.4H65.4L66.3 64.4H71.4L72.4 66.4H74.5L69.8 57.5ZM67 62.8L68.8 59.2L70.5 62.8H67Z" fill="black"/>
<path d="M9.09995 57.5H2.19995V59H8.19995C8.79995 59 8.99995 59.1 8.99995 59.7V60.7C8.99995 61.3 8.69995 61.4 8.19995 61.4H2.19995V66.4H3.99995V62.9H8.99995C10.2 62.9 10.8 62.4 10.8 61.2V59.2C10.9 58 10.3 57.5 9.09995 57.5Z" fill="black"/>
<path d="M20.2001 62.5H23.9V61H20.2001V59H26.5V57.5H18.3V66.4H26.6V64.7H20.2001V62.5Z" fill="black"/>
<path d="M32.7 59.1H36.4V66.4H38.2999V59.1H42V57.5H32.7V59.1Z" fill="black"/>
<path d="M55.7001 63C56.9001 63 57.5 62.5 57.5 61.3V59.2C57.5 58 56.9001 57.5 55.7001 57.5H48.8V59H54.8C55.4 59 55.6 59.1 55.6 59.7V60.8C55.6 61.4 55.3 61.5 54.8 61.5H48.8V66.4H50.6V63H52.4001L55.6 66.4H58.3L54.6 63H55.7001Z" fill="black"/>
<path d="M70 57.5H68.2L63.7 66.4H65.6L66.5 64.4H71.6L72.6 66.4H74.7L70 57.5ZM67.3 62.8L69.1 59.2L70.8 62.8H67.3Z" fill="black"/>
</svg>
