<?xml version="1.0" encoding="utf-8"?>
<!-- Generator: Adobe Illustrator 23.0.0, SVG Export Plug-In . SVG Version: 6.00 Build 0)  -->
<svg version="1.1" id="Capa_1" xmlns="http://www.w3.org/2000/svg" xmlns:xlink="http://www.w3.org/1999/xlink" x="0px" y="0px" viewBox="0 0 252.5 75.5" style="enable-background:new 0 0 252.5 75.5;" xml:space="preserve" width="252.5" height="75.5">
<style type="text/css">
	.st0{fill:#666666;}
	.st1{fill:none;}
</style>
<g>
	<g>
		<g>
			<polygon class="st0" points="2.7,36.3 21.2,36.2 34.8,17.5 48,36 57.7,23 44.6,4.4 24.9,4.4    " />
			<polygon points="80.7,21.9 61.5,21.9 48.1,40.3 34.8,21.7 25.5,35.1 38.5,53.6 57.9,53.6    " />
		</g>
		<g>
			<g>
				<path d="M10.9,61.5H4V63h6c0.6,0,0.8,0.1,0.8,0.7v1c0,0.6-0.3,0.7-0.8,0.7H4v5h1.8v-3.5h5c1.2,0,1.8-0.5,1.8-1.7v-2      C12.7,62,12.1,61.5,10.9,61.5z" />
				<polygon points="21.9,66.5 25.6,66.5 25.6,65 21.9,65 21.9,63 28.3,63 28.3,61.5 20.1,61.5 20.1,70.4 28.3,70.4 28.3,68.7       21.9,68.7     " />
				<polygon points="34.5,63.1 38.2,63.1 38.2,70.4 40,70.4 40,63.1 43.7,63.1 43.7,61.5 34.5,61.5     " />
				<path d="M57.4,67c1.2,0,1.8-0.5,1.8-1.7v-2.1c0-1.2-0.6-1.7-1.8-1.7h-6.9V63h6c0.6,0,0.8,0.1,0.8,0.7v1.1c0,0.6-0.3,0.7-0.8,0.7      h-6v4.9h1.8V67h1.8l3.2,3.4H60L56.4,67H57.4z" />
				<path d="M71.8,61.5H70l-4.5,8.9h1.9l0.9-2h5.1l1,2h2.1L71.8,61.5z M69,66.8l1.8-3.6l1.7,3.6H69z" />
			</g>
			<g>
				<path class="st1" d="M10.3,65.4c0.6,0,0.8-0.1,0.8-0.7v-1c0-0.6-0.3-0.7-0.8-0.7H6.1l0,0h1v2.4h-1l0,0H10.3z" />
				<polygon class="st1" points="69.3,66.8 72.8,66.8 71,63.2     " />
				<path d="M11.1,61.5H4.2V63h6c0.6,0,0.8,0.1,0.8,0.7v1c0,0.6-0.3,0.7-0.8,0.7h-6v5H6v-3.5h5c1.2,0,1.8-0.5,1.8-1.7v-2      C12.9,62,12.3,61.5,11.1,61.5z" />
				<polygon points="22.2,66.5 25.9,66.5 25.9,65 22.2,65 22.2,63 28.5,63 28.5,61.5 20.3,61.5 20.3,70.4 28.6,70.4 28.6,68.7       22.2,68.7     " />
				<polygon points="34.7,63.1 38.4,63.1 38.4,70.4 40.3,70.4 40.3,63.1 44,63.1 44,61.5 34.7,61.5     " />
				<path d="M57.7,67c1.2,0,1.8-0.5,1.8-1.7v-2.1c0-1.2-0.6-1.7-1.8-1.7h-6.9V63h6c0.6,0,0.8,0.1,0.8,0.7v1.1c0,0.6-0.3,0.7-0.8,0.7      h-6v4.9h1.8V67h1.8l3.2,3.4h2.7L56.6,67H57.7z" />
				<path d="M72,61.5h-1.8l-4.5,8.9h1.9l0.9-2h5.1l1,2h2.1L72,61.5z M69.3,66.8l1.8-3.6l1.7,3.6H69.3z" />
			</g>
		</g>
	</g>
</g>
</svg>