<?xml version="1.0" standalone="no"?>
<!DOCTYPE svg PUBLIC "-//W3C//DTD SVG 20010904//EN"
 "http://www.w3.org/TR/2001/REC-SVG-20010904/DTD/svg10.dtd">
<svg version="1.0" xmlns="http://www.w3.org/2000/svg"
 width="79.000000pt" height="67.000000pt" viewBox="0 0 79.000000 67.000000"
 preserveAspectRatio="xMidYMid meet">
<metadata>
Created by potrace 1.16, written by Peter Selinger 2001-2019
</metadata>
<g transform="translate(0.000000,67.000000) scale(0.100000,-0.100000)"
fill="#000000" stroke="none">
<path d="M159 558 c-136 -194 -148 -212 -145 -215 2 -2 44 -1 94 3 l90 7 65
89 65 90 63 -91 c35 -49 66 -90 69 -90 6 0 90 114 90 123 0 4 -28 47 -62 97
l-62 89 -98 0 -97 0 -72 -102z"/>
<path d="M279 422 l-47 -67 65 -93 64 -92 102 0 102 1 65 92 c36 50 87 122
113 159 l48 68 -98 0 -99 0 -65 -90 c-35 -49 -66 -90 -69 -90 -3 0 -24 28 -48
63 -23 34 -52 74 -65 89 l-22 27 -46 -67z"/>
</g>
</svg>
