<?xml version="1.0" standalone="no"?>
<!DOCTYPE svg PUBLIC "-//W3C//DTD SVG 20010904//EN"
 "http://www.w3.org/TR/2001/REC-SVG-20010904/DTD/svg10.dtd">
<svg version="1.0" xmlns="http://www.w3.org/2000/svg"
 width="79.000000pt" height="67.000000pt" viewBox="0 0 79.000000 67.000000"
 preserveAspectRatio="xMidYMid meet">

<g transform="translate(0.000000,67.000000) scale(0.100000,-0.100000)"
fill="#000000" stroke="none">
<path d="M159 558 c-136 -194 -148 -212 -145 -215 2 -2 44 -1 94 3 l90 7 65
89 65 90 63 -91 c35 -49 66 -90 69 -90 6 0 90 114 90 123 0 4 -28 47 -62 97
l-62 89 -98 0 -97 0 -72 -102z"/>
<path d="M279 422 l-47 -67 65 -93 64 -92 102 0 102 1 65 92 c36 50 87 122
113 159 l48 68 -98 0 -99 0 -65 -90 c-35 -49 -66 -90 -69 -90 -3 0 -24 28 -48
63 -23 34 -52 74 -65 89 l-22 27 -46 -67z"/>
<path d="M20 80 c0 -5 16 -10 36 -10 21 0 33 -4 29 -10 -3 -5 -19 -10 -36 -10
-24 0 -29 -4 -29 -25 0 -14 5 -25 10 -25 6 0 10 6 10 14 0 9 12 16 33 18 27 2
33 8 35 31 3 26 2 27 -42 27 -25 0 -46 -4 -46 -10z"/>
<path d="M180 45 l0 -45 45 0 c54 0 60 17 8 23 -33 3 -35 5 -15 12 12 4 22 11
22 15 0 5 -10 11 -22 13 -14 3 -9 5 15 6 53 2 46 21 -8 21 l-45 0 0 -45z"/>
<path d="M320 80 c0 -5 9 -10 20 -10 16 0 20 -7 20 -35 0 -24 5 -35 15 -35 10
0 15 11 15 35 0 24 5 35 15 35 8 0 15 5 15 10 0 6 -22 10 -50 10 -27 0 -50 -4
-50 -10z"/>
<path d="M485 80 c3 -5 19 -10 36 -10 16 0 29 -4 29 -10 0 -5 -16 -10 -35 -10
-31 0 -35 -3 -35 -25 0 -16 6 -25 15 -25 8 0 15 7 15 15 0 8 4 15 9 15 5 0 14
-7 21 -15 7 -8 20 -15 28 -15 12 0 13 3 5 11 -8 8 -9 16 -1 29 20 32 3 50 -47
50 -28 0 -44 -4 -40 -10z"/>
<path d="M652 45 c-18 -37 -19 -45 -7 -45 8 0 15 5 15 10 0 6 11 10 24 10 14
0 28 -4 31 -10 3 -5 13 -10 20 -10 12 0 10 10 -7 45 -13 25 -29 45 -38 45 -9
0 -25 -20 -38 -45z m43 5 c3 -5 1 -10 -4 -10 -6 0 -11 5 -11 10 0 6 2 10 4 10
3 0 8 -4 11 -10z"/>
</g>
</svg>
