<?xml version="1.0" standalone="no"?>
<!DOCTYPE svg PUBLIC "-//W3C//DTD SVG 20010904//EN"
 "http://www.w3.org/TR/2001/REC-SVG-20010904/DTD/svg10.dtd">
<svg version="1.0" xmlns="http://www.w3.org/2000/svg"
 width="167.000000pt" height="147.000000pt" viewBox="0 0 167.000000 147.000000"
 preserveAspectRatio="xMidYMid meet">

<g transform="translate(0.000000,147.000000) scale(0.100000,-0.100000)"
fill="#000000" stroke="none">
<path d="M801 1463 c-7 -3 -28 -19 -46 -37 -72 -67 -94 -86 -102 -86 -4 0 -23
-16 -40 -35 -18 -19 -34 -35 -37 -35 -3 0 -6 15 -8 33 l-3 32 -95 0 -95 0 -3
-124 -3 -124 -68 -66 c-62 -61 -96 -89 -129 -110 -7 -4 -15 -24 -19 -44 -8
-49 26 -87 78 -87 29 0 45 8 78 40 22 22 46 40 51 40 6 0 10 -40 10 -100 l0
-100 -60 0 c-55 0 -60 2 -60 21 0 12 -11 32 -26 45 -22 21 -35 24 -102 24
-125 -1 -117 22 -117 -333 l0 -302 28 -27 c25 -25 35 -28 92 -28 37 0 65 4 65
10 0 6 6 10 13 10 16 0 47 36 47 54 0 11 8 12 40 4 22 -6 40 -14 40 -18 0 -3
34 -15 75 -25 41 -11 75 -22 75 -26 0 -4 25 -13 55 -20 30 -7 55 -16 55 -21 0
-4 34 -8 75 -8 41 0 75 4 75 9 0 4 63 14 140 21 77 7 140 16 140 20 0 4 37 10
82 14 103 9 165 24 172 42 3 8 12 14 19 14 8 0 37 21 64 47 27 27 62 57 78 68
16 11 47 39 69 62 23 24 44 43 49 43 4 0 16 8 26 18 10 9 30 27 44 39 30 27
40 72 26 113 -13 36 -35 50 -83 50 -35 0 -86 -18 -86 -30 0 -3 -19 -14 -42
-25 -24 -10 -47 -24 -51 -32 -4 -7 -14 -13 -22 -13 -8 0 -18 -6 -22 -14 -4 -8
-20 -18 -35 -21 l-28 -7 0 211 c0 133 4 211 10 211 5 0 20 -9 32 -19 13 -11
34 -29 47 -40 54 -47 131 -13 131 58 0 29 -8 43 -51 83 -28 26 -54 48 -58 48
-4 0 -47 38 -95 85 -48 47 -92 85 -96 85 -5 0 -41 30 -79 68 -73 71 -100 94
-250 222 -24 20 -43 24 -70 13z m63 -55 c12 -13 34 -32 50 -43 27 -19 45 -35
183 -165 32 -31 69 -63 83 -71 14 -9 58 -48 97 -88 40 -39 76 -71 81 -71 4 0
29 -21 56 -46 36 -36 46 -52 44 -73 -2 -20 -9 -27 -31 -29 -23 -3 -38 6 -75
42 -92 90 -132 126 -140 126 -4 0 -52 43 -106 95 -54 52 -101 95 -106 95 -4 0
-42 34 -85 75 -42 41 -81 75 -86 75 -11 0 -49 -34 -150 -132 -32 -32 -63 -58
-68 -58 -5 0 -55 -45 -112 -100 -57 -55 -107 -100 -111 -100 -4 0 -36 -27 -70
-60 -45 -44 -69 -60 -89 -60 -15 0 -31 5 -34 10 -12 20 6 69 28 76 12 4 40 25
64 48 23 22 71 69 106 104 36 34 69 62 74 62 5 0 58 47 117 105 59 58 111 105
115 105 4 0 32 23 61 50 29 28 60 50 68 50 8 0 24 -10 36 -22z m-334 -145 c0
-30 -8 -44 -50 -85 -27 -26 -54 -48 -60 -48 -6 0 -10 33 -10 85 l0 85 60 0 60
0 0 -37z m368 -43 c28 -27 54 -50 58 -50 7 0 43 -33 140 -127 41 -40 78 -73
83 -73 4 0 25 -15 45 -34 l36 -35 0 -241 c0 -239 0 -242 -22 -261 -13 -10 -29
-18 -35 -19 -7 0 -13 -4 -13 -10 0 -5 -18 -10 -40 -10 -33 0 -40 3 -40 20 0
11 -4 20 -10 20 -5 0 -10 8 -10 18 0 27 -67 92 -95 92 -13 0 -15 24 -15 149 0
82 -3 156 -6 165 -5 13 -27 16 -134 16 -71 0 -135 -3 -144 -6 -13 -5 -16 -27
-16 -138 0 -72 -5 -138 -10 -146 -6 -10 -10 -11 -10 -2 0 6 -8 12 -17 12 -22
0 -83 22 -83 30 0 4 -18 13 -40 20 -22 7 -40 16 -40 20 0 4 -16 11 -35 14
l-35 7 0 134 c0 82 4 135 10 135 5 0 58 47 117 105 59 58 111 105 116 105 6 0
27 17 48 38 72 71 110 102 128 102 10 0 41 -22 69 -50z m42 -556 l0 -146 -87
7 c-49 3 -100 9 -115 11 l-28 6 0 134 0 134 115 0 115 0 0 -146z m-751 44 c8
-17 11 -103 9 -313 l-3 -290 -61 -3 c-98 -5 -94 -19 -94 315 0 276 1 285 20
290 11 3 20 9 20 14 0 5 22 9 48 9 40 0 51 -4 61 -22z m220 -97 c24 -5 46 -13
50 -18 3 -6 24 -16 46 -23 22 -7 45 -19 52 -25 14 -14 120 -35 176 -35 20 0
37 -4 37 -10 0 -5 21 -10 48 -10 76 -1 186 -18 190 -29 2 -6 10 -11 17 -11 8
0 17 -10 21 -22 4 -13 12 -26 18 -30 29 -19 -22 -21 -217 -10 -116 7 -231 15
-254 18 -35 5 -43 3 -43 -10 0 -12 10 -16 40 -16 22 0 40 -4 40 -8 0 -5 108
-15 240 -22 132 -8 240 -17 240 -22 0 -4 20 -8 45 -8 25 0 45 4 45 9 0 5 14
14 30 21 17 7 30 16 30 20 0 4 18 15 40 24 22 9 40 20 40 24 0 5 16 14 35 22
19 7 36 19 39 27 3 7 12 13 20 13 8 0 19 6 23 13 12 19 77 47 110 47 15 0 36
-7 46 -14 18 -14 23 -46 7 -46 -5 0 -10 -5 -10 -11 0 -13 -67 -79 -80 -79 -4
0 -35 -27 -68 -60 -34 -33 -65 -60 -69 -60 -5 0 -16 -8 -24 -17 -14 -16 -34
-33 -107 -94 -17 -14 -70 -29 -104 -29 -16 0 -28 -4 -28 -9 0 -4 -80 -16 -178
-26 -97 -10 -180 -22 -183 -27 -8 -13 -169 -15 -177 -2 -4 6 -40 20 -79 30
-40 10 -73 21 -73 25 0 4 -24 13 -52 19 -29 7 -55 16 -58 21 -3 4 -21 11 -40
16 l-35 9 -3 217 -2 217 57 0 c32 -1 78 -5 102 -9z"/>
</g>
</svg>
