<?xml version="1.0" standalone="no"?>
<!DOCTYPE svg PUBLIC "-//W3C//DTD SVG 20010904//EN"
 "http://www.w3.org/TR/2001/REC-SVG-20010904/DTD/svg10.dtd">
<svg version="1.0" xmlns="http://www.w3.org/2000/svg"
 width="167.000000pt" height="138.000000pt" viewBox="0 0 167.000000 138.000000"
 preserveAspectRatio="xMidYMid meet">

<g transform="translate(0.000000,138.000000) scale(0.100000,-0.100000)"
fill="#000000" stroke="none">
<path d="M971 1353 c-6 -13 -24 -22 -50 -26 -22 -3 -47 -11 -56 -18 -44 -38
-95 -94 -95 -105 0 -34 -34 -17 -104 52 -61 59 -82 74 -106 74 -18 0 -33 -6
-36 -15 -4 -8 -11 -15 -17 -15 -5 0 -37 -27 -69 -60 -61 -61 -78 -71 -78 -46
0 20 -23 26 -101 26 l-69 0 0 -106 0 -107 -95 -94 c-52 -52 -95 -103 -95 -113
0 -27 47 -70 75 -70 15 0 40 14 61 35 19 19 37 35 39 35 2 0 5 -110 7 -244 2
-134 7 -248 11 -253 5 -4 49 -10 99 -12 l90 -3 -7 -123 c-7 -118 -6 -124 13
-134 31 -17 1248 -15 1258 1 11 18 5 315 -7 361 -12 45 -65 101 -114 118 -19
7 -35 16 -35 20 0 3 -27 12 -60 19 -33 7 -60 16 -60 20 0 4 -25 13 -55 20 -30
7 -55 17 -55 22 0 4 -9 8 -20 8 -11 0 -20 -4 -20 -10 0 -5 -9 -10 -21 -10 -51
0 -70 77 -24 98 14 6 25 18 25 27 0 8 4 15 9 15 5 0 15 16 22 35 7 19 17 35
21 35 4 0 8 9 8 21 0 24 17 44 48 53 20 7 22 13 22 96 0 69 -3 89 -15 94 -9 3
-15 19 -15 41 0 19 -4 35 -9 35 -5 0 -11 14 -15 31 -6 32 -83 119 -105 119 -6
0 -11 4 -11 9 0 5 -18 12 -40 16 -22 4 -44 13 -48 22 -5 8 -27 17 -49 20 -34
4 -43 2 -52 -14z m77 -72 c4 -58 -5 -91 -24 -91 -29 0 -44 27 -44 78 0 52 8
62 45 59 16 -2 21 -11 23 -46z m-389 -71 c57 -56 81 -87 81 -104 0 -43 -24
-34 -93 35 -61 62 -97 84 -97 61 0 -5 -12 -15 -27 -23 -23 -12 -101 -86 -165
-156 -31 -34 -75 -73 -82 -73 -4 0 -47 -40 -96 -90 -83 -84 -119 -106 -135
-80 -9 15 6 60 21 60 7 0 65 52 128 115 62 63 117 115 121 115 4 0 52 45 106
100 55 55 106 100 114 100 8 0 15 5 15 10 0 26 35 3 109 -70z m281 34 c0 -57
17 -73 81 -74 57 0 69 12 69 72 0 36 4 48 15 48 8 0 15 -4 15 -10 0 -5 8 -10
18 -10 25 0 89 -61 97 -93 4 -15 11 -27 15 -27 4 0 10 -21 13 -47 2 -27 8 -58
12 -70 l7 -23 -271 0 c-234 0 -271 2 -271 15 0 8 6 15 14 15 9 0 16 20 21 64
4 41 13 73 25 86 11 13 22 30 25 39 3 10 21 24 40 31 19 8 35 17 35 22 0 4 9
8 20 8 17 0 20 -7 20 -46z m-630 -96 c-1 -37 -14 -59 -47 -76 -38 -21 -43 -15
-43 48 l0 60 45 0 c44 0 45 -1 45 -32z m398 -190 c4 -58 8 -71 23 -75 11 -3
19 -9 19 -14 0 -5 6 -9 14 -9 8 0 15 -16 19 -42 3 -23 12 -45 20 -50 8 -4 18
-19 21 -32 3 -14 19 -30 36 -38 24 -10 30 -19 30 -45 0 -23 -5 -33 -15 -33 -8
0 -15 -4 -15 -10 0 -5 -11 -10 -25 -10 -14 0 -25 5 -25 10 0 13 -27 13 -32 0
-1 -5 -24 -13 -50 -16 l-48 -7 0 97 0 96 -120 0 -120 0 0 -164 c0 -134 -3
-165 -14 -169 -8 -3 -18 -22 -22 -41 -3 -20 -10 -36 -15 -36 -5 0 -9 -9 -9
-20 0 -18 -7 -20 -80 -20 l-80 0 0 258 0 257 25 24 c14 13 25 26 25 30 0 4 12
14 27 22 15 8 76 62 134 122 59 59 112 107 118 107 6 0 11 5 11 10 0 6 32 -21
71 -60 l72 -71 5 -71z m62 -18 c0 -31 -16 -41 -26 -15 -8 19 2 45 16 45 5 0
10 -13 10 -30z m454 -49 c0 -48 -5 -76 -12 -79 -7 -2 -12 -10 -12 -18 0 -8 -7
-17 -15 -20 -8 -4 -15 -13 -15 -20 0 -8 -8 -18 -17 -21 -10 -4 -21 -12 -26
-19 -4 -7 -23 -16 -42 -20 -19 -3 -35 -10 -35 -15 0 -5 -16 -9 -35 -9 -19 0
-35 3 -35 8 0 4 -19 13 -42 20 -36 12 -59 30 -97 78 -16 20 -31 88 -31 142 l0
52 208 -2 207 -3 -1 -74z m53 32 c-4 -17 -4 -17 -12 0 -4 9 -4 25 0 35 8 16 8
16 12 0 3 -10 3 -26 0 -35z m-631 -177 c10 -10 14 -39 14 -99 l0 -85 -52 -12
c-29 -7 -55 -16 -58 -20 -3 -4 -20 -11 -37 -15 l-33 -7 0 126 0 126 76 0 c52
0 80 -4 90 -14z m354 -106 c0 -5 9 -10 20 -10 11 0 20 5 20 10 0 6 16 10 35
10 31 0 35 -3 35 -25 0 -18 7 -28 25 -35 27 -10 35 -40 11 -40 -8 0 -22 -8
-31 -17 -13 -13 -36 -17 -96 -17 -48 -1 -83 4 -87 10 -4 6 -20 15 -36 21 -41
13 -43 28 -4 39 26 8 34 16 36 37 3 24 8 27 38 27 19 0 34 -4 34 -10z m-216
-96 c3 -9 6 -29 6 -45 0 -16 4 -29 9 -29 5 0 12 -14 16 -31 4 -19 16 -34 31
-39 13 -5 24 -14 24 -19 0 -5 14 -12 31 -16 17 -4 33 -13 36 -21 3 -8 10 -14
17 -14 6 0 19 -9 29 -20 14 -17 17 -41 17 -145 l0 -125 -195 0 -195 0 0 235 0
236 30 6 c17 3 30 9 30 13 0 8 61 27 91 29 9 1 20 -6 23 -15z m540 4 c22 -7
43 -15 46 -19 3 -4 14 -8 25 -10 19 -4 20 -13 23 -242 l2 -237 -190 0 -190 0
0 130 c0 91 4 132 13 140 44 37 61 50 67 50 4 0 17 8 28 18 12 9 35 28 52 41
21 18 31 37 36 70 7 44 20 70 38 71 5 0 27 -5 50 -12z m-474 -18 c0 -5 18 -15
40 -21 22 -7 40 -16 40 -21 0 -4 41 -8 90 -8 50 0 90 4 90 9 0 5 17 15 38 22
20 6 40 17 44 23 4 6 8 -5 8 -25 0 -40 -33 -83 -85 -109 -17 -8 -35 -22 -42
-30 -15 -20 -91 -19 -106 1 -7 8 -27 22 -44 30 -18 7 -33 17 -33 21 0 5 -7 8
-15 8 -9 0 -19 8 -22 18 -4 9 -10 19 -13 22 -4 3 -10 20 -13 38 -5 24 -3 32 8
32 8 0 15 -4 15 -10z m-280 -260 l0 -230 -75 0 c-72 0 -75 1 -81 26 -9 37 5
298 17 302 5 2 9 12 9 22 0 25 52 78 84 86 14 3 26 10 26 15 0 5 5 9 10 9 6 0
10 -83 10 -230z m920 220 c0 -5 6 -10 13 -10 18 0 77 -50 77 -66 0 -7 6 -14
13 -16 8 -3 13 -40 15 -126 2 -67 8 -122 13 -122 15 0 10 -80 -5 -96 -10 -9
-37 -14 -85 -14 l-71 0 0 230 c0 198 2 230 15 230 8 0 15 -4 15 -10z"/>
</g>
</svg>
