<?xml version="1.0" standalone="no"?>
<!DOCTYPE svg PUBLIC "-//W3C//DTD SVG 20010904//EN"
 "http://www.w3.org/TR/2001/REC-SVG-20010904/DTD/svg10.dtd">
<svg version="1.0" xmlns="http://www.w3.org/2000/svg"
 width="123.000000pt" height="167.000000pt" viewBox="0 0 123.000000 167.000000"
 preserveAspectRatio="xMidYMid meet">

<g transform="translate(0.000000,167.000000) scale(0.100000,-0.100000)"
fill="#000000" stroke="none">
<path d="M342 1643 c-13 -14 -26 -39 -29 -54 -4 -20 -12 -29 -24 -29 -11 0
-19 -4 -19 -10 0 -5 -12 -10 -26 -10 -17 0 -28 -6 -31 -20 -5 -18 -14 -20 -79
-20 -65 0 -76 -3 -101 -26 l-28 -26 -3 -632 -2 -632 23 -27 c12 -15 28 -27 35
-27 7 0 12 -4 12 -10 0 -5 9 -10 20 -10 13 0 20 -7 20 -20 0 -11 5 -20 10 -20
6 0 10 -6 10 -14 0 -8 10 -22 22 -30 20 -14 85 -16 511 -16 547 0 551 0 562
64 3 17 5 308 3 647 l-3 615 -29 27 c-16 15 -40 27 -52 27 -17 0 -24 6 -24 20
0 11 -4 20 -10 20 -5 0 -10 7 -10 15 0 8 -9 24 -20 35 -16 16 -33 20 -90 20
-57 0 -75 4 -92 20 -12 11 -28 20 -35 20 -7 0 -13 5 -13 10 0 6 -8 10 -19 10
-13 0 -20 9 -25 30 -3 17 -18 42 -32 55 -27 25 -29 25 -218 25 l-191 0 -23
-27z m408 -78 c0 -33 4 -45 15 -45 8 0 15 -4 15 -10 0 -5 20 -10 45 -10 l45 0
0 -55 0 -55 -310 0 -310 0 0 55 0 55 41 0 c51 0 69 18 69 69 l0 41 195 0 195
0 0 -45z m-547 -160 c2 -26 8 -49 12 -53 9 -9 681 -9 690 0 4 4 10 27 12 53
l6 45 68 0 69 0 0 -640 0 -640 -500 0 -500 0 0 640 0 640 69 0 68 0 6 -45z
m967 -705 l0 -640 -500 0 -500 0 0 25 0 25 440 0 c287 0 440 3 440 10 0 6 7
10 15 10 9 0 21 11 27 25 6 14 15 25 20 25 4 0 8 261 8 580 l0 580 25 0 25 0
0 -640z"/>
<path d="M488 1524 c-22 -7 -23 -30 -2 -38 9 -3 45 -6 80 -6 49 0 66 4 71 15
3 9 2 19 -1 22 -8 9 -125 14 -148 7z"/>
<path d="M535 1260 c-5 -5 -20 -18 -32 -29 -13 -12 -26 -21 -31 -21 -4 0 -22
-16 -39 -35 -18 -19 -37 -35 -43 -35 -5 0 -20 -11 -32 -25 -12 -14 -26 -25
-32 -25 -6 0 -22 -13 -36 -30 -14 -16 -30 -30 -37 -30 -7 0 -22 -10 -33 -22
-29 -31 -20 -73 23 -112 l32 -29 5 -147 c4 -127 8 -149 24 -166 18 -17 38 -19
230 -22 248 -4 273 -1 282 33 3 14 10 25 15 25 5 0 9 61 9 135 l0 134 40 40
c24 24 40 49 40 63 0 24 -32 60 -62 71 -15 5 -18 20 -18 98 0 105 -8 118 -75
119 -60 0 -85 -10 -85 -32 0 -15 -4 -18 -22 -12 -12 3 -31 15 -42 25 -11 11
-26 19 -33 19 -7 0 -13 5 -13 10 0 12 -21 12 -35 0z m89 -93 c19 -17 46 -41
61 -51 14 -11 35 -27 45 -35 11 -9 29 -24 42 -34 13 -10 37 -29 53 -42 17 -14
33 -25 38 -25 4 0 7 -7 7 -15 0 -8 -4 -15 -10 -15 -5 0 -10 -7 -10 -15 0 -25
-34 -17 -60 15 -14 16 -30 29 -36 30 -7 0 -22 11 -35 25 -13 13 -29 25 -34 25
-6 0 -22 12 -35 28 -14 15 -37 33 -52 41 -16 8 -28 18 -28 23 0 16 -21 7 -48
-22 -16 -16 -34 -30 -40 -30 -6 0 -16 -9 -22 -20 -6 -11 -16 -20 -23 -20 -7 0
-23 -12 -36 -25 -13 -14 -28 -25 -35 -25 -6 -1 -22 -14 -36 -30 -28 -35 -40
-37 -63 -10 -23 27 -22 34 11 51 15 8 41 29 58 47 17 17 35 32 39 32 4 0 21
14 37 30 15 17 32 30 36 30 4 0 18 12 31 25 13 14 29 25 36 25 7 0 16 7 19 16
9 23 49 11 90 -29z m160 37 c22 -8 23 -104 1 -104 -25 0 -55 42 -55 77 0 34
16 42 54 27z m-176 -174 c16 -16 34 -30 40 -30 7 0 17 -9 24 -20 7 -11 19 -20
25 -20 7 0 23 -11 35 -25 12 -14 28 -25 35 -25 7 0 13 -7 13 -15 0 -8 5 -15
10 -15 6 0 10 -52 10 -135 0 -77 -4 -135 -9 -135 -5 0 -13 -9 -16 -20 -5 -16
-15 -20 -56 -20 l-49 0 0 90 c0 79 -3 92 -22 110 -12 11 -28 20 -35 20 -7 0
-13 5 -13 10 0 6 -16 10 -35 10 -19 0 -35 -4 -35 -9 0 -5 -14 -11 -30 -15 -40
-7 -50 -36 -50 -137 l0 -79 -49 0 c-35 0 -51 4 -55 16 -3 9 -6 80 -6 159 l0
144 30 31 c16 16 33 30 37 30 4 0 19 12 32 25 13 14 28 25 35 26 6 0 22 13 36
29 32 37 63 37 98 0z m2 -370 l0 -90 -55 0 -55 0 0 90 0 90 55 0 55 0 0 -90z"/>
<path d="M132 453 l3 -28 189 -3 c107 -1 194 2 199 7 5 5 6 18 2 30 -6 20 -12
21 -201 21 l-195 0 3 -27z"/>
<path d="M605 460 c-3 -11 -3 -24 0 -30 7 -11 362 -14 389 -4 9 3 16 17 16 30
l0 24 -199 0 c-191 0 -200 -1 -206 -20z"/>
<path d="M130 335 l0 -25 198 2 c189 3 197 4 197 23 0 19 -8 20 -197 23 l-198
2 0 -25z"/>
<path d="M604 345 c-12 -31 7 -35 191 -35 189 0 215 3 215 25 0 22 -26 25
-216 25 -152 0 -186 -3 -190 -15z"/>
</g>
</svg>
